# xmcd
# 
# Track frame offsets:
#     150
#     17004
#     37982
#     55052
#     70019
# 
# Disc length: 1225
# 
# Revision: 0
# Processed by: cddbd v1.5.2PL0 Copyright (c) Steve Scherf et al.
# Submitted via: fre:ac v1.0.17
# 
DISCID=3404c705
DTITLE=Goldsmith - Goldsmythology E.P.
DYEAR=2011
DGENRE=Classic Rock
TTITLE0=Get it done!
TTITLE1=Trainf of life
TTITLE2=Lost
TTITLE3=Just a dream away
TTITLE4=Before my love is gone
EXTD=
EXTT0=
EXTT1=
EXTT2=
EXTT3=
EXTT4=
PLAYORDER=
